<?xml version="1.0" ?><!DOCTYPE svg  PUBLIC '-//W3C//DTD SVG 1.1//EN'  'http://www.w3.org/Graphics/SVG/1.1/DTD/svg11.dtd'><svg enable-background="new 0 0 32 32" height="32px" id="Layer_1" version="1.1" viewBox="0 0 32 32" width="32px" xml:space="preserve" xmlns="http://www.w3.org/2000/svg" xmlns:xlink="http://www.w3.org/1999/xlink"><g id="portfolio"><path d="M29.5,29h-27C1.673,29,1,28.327,1,27.5v-6C1,21.224,1.224,21,1.5,21S2,21.224,2,21.5v6   C2,27.775,2.225,28,2.5,28h27c0.275,0,0.5-0.225,0.5-0.5v-6c0-0.276,0.224-0.5,0.5-0.5s0.5,0.224,0.5,0.5v6   C31,28.327,30.327,29,29.5,29z" fill="#263238"/><path d="M21.5,6C21.224,6,21,5.776,21,5.5v-2C21,3.225,20.775,3,20.5,3h-9C11.225,3,11,3.225,11,3.5v2   C11,5.776,10.776,6,10.5,6S10,5.776,10,5.5v-2C10,2.673,10.673,2,11.5,2h9C21.327,2,22,2.673,22,3.5v2C22,5.776,21.776,6,21.5,6z" fill="#263238"/><path d="M27.5,21h-2c-0.276,0-0.5-0.224-0.5-0.5s0.224-0.5,0.5-0.5h2c1.379,0,2.5-1.121,2.5-2.5V8H3.5   C3.224,8,3,7.776,3,7.5S3.224,7,3.5,7h27C30.776,7,31,7.224,31,7.5v10C31,19.43,29.43,21,27.5,21z" fill="#263238"/><path d="M6.5,21h-2C2.57,21,1,19.43,1,17.5v-10C1,7.224,1.224,7,1.5,7S2,7.224,2,7.5v10C2,18.879,3.121,20,4.5,20h2   C6.776,20,7,20.224,7,20.5S6.776,21,6.5,21z" fill="#263238"/><path d="M19.5,21h-7c-0.276,0-0.5-0.224-0.5-0.5s0.224-0.5,0.5-0.5h7c0.276,0,0.5,0.224,0.5,0.5S19.776,21,19.5,21z   " fill="#263238"/><g><path d="M9.5,23C8.673,23,8,22.327,8,21.5v-3C8,18.224,8.224,18,8.5,18h2c0.276,0,0.5,0.224,0.5,0.5v3    C11,22.327,10.327,23,9.5,23z M9,19v2.5C9,21.775,9.225,22,9.5,22s0.5-0.225,0.5-0.5V19H9z" fill="#263238"/></g><g><path d="M22.5,23c-0.827,0-1.5-0.673-1.5-1.5v-3c0-0.276,0.224-0.5,0.5-0.5h2c0.276,0,0.5,0.224,0.5,0.5v3    C24,22.327,23.327,23,22.5,23z M22,19v2.5c0,0.275,0.225,0.5,0.5,0.5s0.5-0.225,0.5-0.5V19H22z" fill="#263238"/></g></g></svg>